<svg xmlns="http://www.w3.org/2000/svg" enable-background="new 0 0 2792.727 2792.727" viewBox="0 0 2792.727 2792.727"><path fill="#11070c" d="M1834.063,1016.333c-1.558-13.351-2.738-26.785-5.142-39.991
			c-4.625-25.406-11.953-50.125-20.935-74.338c-12.477-33.634-30.322-64.408-51.324-93.273
			c-25.254-34.708-59.526-59.328-95.22-82.07c-10.102-6.436-20.981-11.518-32.04-16.19c-11.087-4.684-22.347-8.606-34.403-9.866
			c-1.796-0.188-3.638-0.464-5.32-1.078c-2.108-0.77-3.838-2.149-3.771-4.741c0.114-4.353-0.137-8.769,0.516-13.044
			c2.192-14.36,4.676-28.677,7.123-42.998c3.119-18.26,6.709-36.449,9.372-54.775c3.449-23.735,5.605-47.625,7.501-71.547
			c3.164-39.937,3.716-79.867,1.587-119.863c-1.19-22.353-8.61-42.564-20.405-61.316c-3.494-5.555-7.719-10.689-13.066-14.536
			c-13.35-9.602-27.595-17.31-43.941-20.796c-15.783-3.366-31.651-4.26-47.693-3.223c-13.88,0.897-27.373,3.634-40.202,9.054
			c-28.448,12.019-56.104,25.647-82.802,41.201c-24.603,14.333-40.212,35.144-45.768,63.25c-3.487,17.64-1.915,34.696,5.768,51.074
			c1.88,4.008,4.278,7.582,7.935,10.205c3.643,2.612,6.699,2.118,9.108-1.611c0.981-1.518,1.71-3.199,2.705-4.708
			c0.345-0.523,1.152-1.062,1.732-1.044c1.122,0.034,1.886,0.798,2.143,1.98c4.003,18.408,4.675,36.746-1.514,54.848
			c-2.347,6.865-5.098,13.592-7.614,20.401c-1.256,3.399-2.629,6.78-3.546,10.274c-2.528,9.637-0.154,17.969,7.22,24.758
			c2.138,1.968,4.31,3.918,6.615,5.682c8.571,6.559,13.283,15.176,14.348,25.907c0.284,2.864,0.678,5.849,1.766,8.468
			c1.522,3.665,0.313,6.075-2.046,8.803c-7.726,8.934-10.849,19.614-10.726,31.24c0.073,6.896,0.574,13.796,1.113,20.676
			c0.314,4.008,0.51,7.974-0.167,11.951c-0.39,2.29-1.896,3.192-3.756,1.933c-8.416-5.7-17.078-11.1-25.064-17.358
			c-15.755-12.346-32.178-23.685-48.982-34.525c-10.682-6.891-21.252-13.963-31.735-21.153
			c-11.747-8.058-20.048-18.724-24.444-32.461c-2.657-8.302-6.64-16.091-10.662-23.834c-6.856-13.2-17.299-22.304-31.241-27.272
			c-5.454-1.943-11.091-3.448-16.734-4.768c-6.927-1.621-12.859-4.732-17.82-9.874c-9.952-10.317-21.792-18.049-34.44-24.603
			c-6.121-3.171-12.308-6.216-18.512-9.222c-2.514-1.218-3.579-2.851-3.936-5.82c-1.134-9.428-6.195-17.555-12.986-23.267
			c-7.237-6.088-12.01-13.402-16.538-21.207c-5.284-9.109-10.076-18.518-15.629-27.455c-21.863-35.188-41.783-71.493-62.249-107.485
			c-16.526-29.063-30.716-59.315-45.801-89.116c-6.568-12.976-8.003-26.302-5.098-40.226c2.982-14.296,4.128-28.692,4.322-43.284
			c0.338-25.422-5.411-48.913-19.907-70.076c-6.171-9.009-12.503-17.863-19.828-25.978c-3.667-4.062-7.58-7.868-12.23-10.783
			c-2.443-1.531-4.989-3.131-7.715-3.933c-8.777-2.582-16.001,2.21-17.547,11.282c-0.938,5.506-0.198,10.937,1.293,16.181
			c2.381,8.375,4.414,16.977,7.969,24.863c8.217,18.23,10.694,36.823,6.138,56.316c-1.12,1.325-1.121,4.747-4.267,2.278
			c-2.082-3.823-4.069-7.702-6.279-11.45c-1.468-2.491-3.075-4.945-4.942-7.143c-2.435-2.867-5.523-4.869-9.524-3.98
			c-4.496,0.998-6.429,4.521-7.318,8.591c-1.013,4.632-1.179,9.362-0.808,14.106c0.597,7.638,2.284,15.062,4.166,22.465
			c6.2,24.394,18.273,45.855,33.724,65.357c14.625,18.459,25.665,38.647,33.051,60.937c12.898,38.925,25.896,77.818,38.753,116.757
			c8.874,26.876,16.737,54.084,26.521,80.663c2.256,6.127,4.404,12.295,6.679,18.416c0.661,1.778,1.152,3.492-0.387,4.969
			c-7.332,7.034-9.333,17.108-14.438,25.436c-3.137,5.117-3.049,11.426-0.015,16.783c5.588,9.869,12.533,18.047,25.697,16.317
			c2.858-0.375,5.878-0.436,8.06,2.598c-3.29,9.058-8.116,17.678-10.626,27.181c-3.985,15.087-8.223,30.113-11.848,45.286
			c-2.445,10.237-4.137,20.661-3.613,31.301c0.717,14.56,9.738,23.428,24.247,23.997c6.675,0.261,12.947-1.65,19.291-3.125
			c3.213-0.747,6.371-1.331,9.668-1.332c4.493-0.001,7.755,2.056,9.488,6.06c1.726,3.988,3.253,8.104,4.402,12.292
			c3.1,11.294,10.353,18.94,20.527,24.137c3.876,1.98,7.784,3.904,11.727,5.748c6.238,2.918,10.576,7.523,12.922,14.019
			c1.232,3.411,2.575,6.781,3.845,10.178c2.614,6.994,6.833,12.772,12.91,17.159c3.24,2.339,6.495,4.658,9.697,7.048
			c3.961,2.957,6.426,6.858,7.167,11.789c0.27,1.797,0.478,3.606,0.812,5.391c1.873,10.005,7.137,17.631,16.761,21.235
			c12.157,4.553,20.888,12.822,27.895,23.359c1.405,2.112,3.052,4.068,4.649,6.046c3.482,4.312,7.633,7.902,12.826,9.858
			c6.963,2.622,12.715,6.963,18.121,11.852c7.857,7.106,16.532,13.033,25.698,18.288c3.465,1.986,6.836,4.146,10.366,6.006
			c11.195,5.897,19.189,15.437,27.728,24.328c1.698,1.768,2.73,4.27,3.756,6.572c5.963,13.379,9.777,27.365,10.858,41.978
			c1.803,24.367,1.03,48.666-2.577,72.86c-4.23,28.379-8.27,56.786-12.616,85.147c-3.138,20.482-5.49,41.038-7.409,61.669
			c-1.582,17.016-3.358,33.998-3.374,51.11c-0.01,10.549-0.036,21.108,2.136,31.492c1.253,5.995,2.861,11.915,4.299,17.826
			c-1.763,1.858-4.118,1.297-6.191,1.747c-2.131,0.463-4.287,0.818-6.402,1.342c-9.729,2.41-14.064,7.187-15.588,17.174
			c-1.217,7.977-0.877,15.938,0.249,23.902c0.712,5.028,1.598,10.068,1.788,15.125c0.285,7.61,3.574,13.148,10.072,16.917
			c4.008,2.324,8.02,4.642,12.349,7.147c-0.572,5.617-1.067,11.019-1.684,16.408c-0.951,8.302-2.277,16.572-2.931,24.895
			c-2.163,27.55-3.01,55.164-3.613,82.785c-0.238,10.909,0.001,21.796,0.815,32.689c1.816,24.281,3.277,48.589,5.171,72.863
			c1.328,17.024,2.714,34.063,4.813,51.004c3.983,32.153,11.046,63.71,21.404,94.391c8.583,25.426,17.334,50.913,32.37,73.531
			c2.241,3.372,2.649,6.502,1.504,10.227c-3.208,10.432-5.22,21.143-7.048,31.881c-3.655,21.479-7.783,42.873-10.312,64.543
			c-1.981,16.975-3.363,33.984-4.586,51.022c-2.946,41.044-2.403,82.096-0.258,123.136c1.632,31.212,4.067,62.372,7.388,93.458
			c2.74,25.65,5.323,51.318,7.981,76.977c1.722,16.624,3.38,33.254,5.2,49.867c2.334,21.308,4.523,42.638,7.279,63.893
			c4.017,30.977,8.474,61.897,12.765,92.838c1.147,8.274,2.256,16.557,3.608,24.8c0.751,4.583,1.898,5.556,6.536,5.502
			c8.704-0.102,17.415,0.579,26.114-0.889c6.373-1.076,12.877-1.378,19.203-2.013c1.802,2.476,1.169,5.092,1.184,7.583
			c0.056,9.45,0.147,18.903,0.027,28.352c-0.245,19.262-0.573,38.524-0.973,57.783c-0.09,4.346,0.066,8.474-6.635,8.848
			c-4.196,0.235-7.323,4.454-10.306,7.635c-12.764,13.61-28.223,22.43-46.207,27.426c-21.023,5.839-42.006,11.385-63.984,12.398
			c-7.191,0.332-14.327,2.216-21.448,3.594c-7.916,1.531-15.253,4.601-22.102,8.867c-2.798,1.743-5.411,3.677-7.454,6.288
			c-6.393,8.175-4.267,19.177,4.826,24.254c2.184,1.219,4.677,1.939,7.093,2.677c8.743,2.672,17.698,4.039,26.846,3.982
			c8.723-0.053,17.455-0.501,26.167-0.232c26.518,0.817,53.031,1.839,79.54,2.922c4.993,0.204,10.04,0.645,15.027,2.442
			c-2.038,9.964-4.436,19.476-5.867,29.131c-3.321,22.407-0.015,43.445,14.362,61.822c3.5-0.044,7.001-0.089,10.502-0.133
			c1.436-3.689-1.112-6.232-2.74-8.926c-10.219-16.906-13.695-34.837-9.571-54.377c7.271-34.442,17.923-68.207,20.925-103.511
			c0.465-5.468,3.213-5.262,7.434-3.526c14.07,5.788,27.772,3.524,41.156-2.59c10.444-4.771,11.421-4.787,15.374,6.493
			c15.782,45.038,18.727,90.753,6.069,137.092c-1.939,7.099-5.342,13.446-10.105,19.122c-2.472,2.946-6.039,5.541-4.959,10.273
			c0,0,0.449,0.242,0.447,0.24c4.043-0.16,8.088-0.318,12.134-0.475c8.357-9.089,13.012-20.044,15.684-31.884
			c4.9-21.709,7.629-43.655,6.449-65.97c-0.209-3.948-0.413-7.896-0.622-11.898c2.426-1.015,4.376-1.853,6.343-2.65
			c9.523-3.857,14.143-11.019,13.978-21.187c-0.058-3.606-0.402-7.271-1.169-10.788c-1.157-5.31-2.619-10.572-4.268-15.753
			c-6.054-19.025-12.532-37.923-15.355-57.813c-1.889-13.306-4.808-26.522-5.058-39.981c-0.337-18.168,0.037-36.35,0.158-54.526
			c0.019-2.904,0.257-5.81,0.49-8.707c0.218-2.71,1.423-4.695,4.032-5.955c6.5-3.139,12.632-7.003,19.525-9.375
			c14.397-4.954,28.498-10.775,43.402-14.216c6.232-1.438,7.293-3.075,7.007-8.91c-0.089-1.812-0.347-3.62-0.612-5.418
			c-2.547-17.25-4.947-34.524-7.711-51.74c-3.916-24.387-7.974-48.752-12.21-73.085c-4.609-26.476-9.286-52.944-14.307-79.344
			c-6.718-35.319-13.82-70.564-20.709-105.85c-5.427-27.798-10.443-55.673-17.142-83.217c-4.547-18.696-8.489-37.539-12.698-56.317
			c-1.536-6.856-1.219-13.451,0.927-20.317c3.919-12.536,8.823-24.593,14.944-36.177c16.145-30.555,34.506-59.792,53.856-88.366
			c24.866-36.72,48.731-74.051,71.051-112.36c17.01-29.196,32.635-59.134,45.944-90.221c17.944-41.913,26.799-85.919,28.554-131.288
			c0.941-24.323,0.584-48.729-2.066-72.996c-1.576-14.435-2.442-29.017-6.585-43.036c-2.125-7.189-4.964-14.167-7.371-20.936
			c1.552-2.515,3.984-2.466,5.887-3.417c10.461-5.229,15.936-14.466,13.831-25.833c-2.704-14.604-5.588-29.34-14.777-41.681
			c-2.062-2.769-1.964-5.149-0.548-8.033c3.216-6.549,5.135-13.555,7.032-20.574c0.52-1.925-0.045-4.387,2.164-5.65
			c2.132-0.29,3.366,1.303,4.864,2.216c13.457,8.205,27.719,9.958,42.962,6.082c23.157-5.888,41.72-18.977,56.042-37.479
			c18.621-24.056,32.119-51.177,40.153-80.458c7.411-27.009,11.055-54.797,11.425-82.936
			C1836.718,1049.645,1836.003,1032.961,1834.063,1016.333z M1365.365,2642.091c-10.515,11.715-24.591,16.374-39.333,19.275
			c-19.208,3.781-38.505,7.102-58.008,9.12c-6.112,0.632-12.138,2.072-18.217,3.058c-0.978,0.158-2.091,0.048-3.014-0.287
			c-0.388-0.141-0.822-1.502-0.594-1.776c1.704-2.045,4.13-2.793,6.658-3.153c10.053-1.429,20.089-3.023,30.176-4.164
			c15.52-1.756,30.733-5.158,46.051-8.017c12.802-2.39,24.022-7.915,33.767-16.508
			C1365.098,2639.012,1365.775,2639.995,1365.365,2642.091z M1356.125,572.648c-2.52-2.083-5.002-4.211-7.48-6.344
			c-5.231-4.5-6.749-10.191-5.026-16.725c0.829-3.146,2.039-6.198,3.189-9.25c1.918-5.093,3.886-10.167,5.902-15.222
			c8.548-21.44,8.319-43.225,2.615-65.231c-0.456-1.757-0.984-3.497-1.42-5.258c-0.829-3.348-0.336-4.463,2.5-6.181
			c5.653-3.425,11.427-4.242,17.637-1.385c4.024,1.852,7.567,4.294,10.72,7.343c6.323,6.116,11.439,13.116,15.266,21.047
			c-3.361,3.626-7.379,1.23-11.175,1.355c-6.14,0.202-12.141,1.402-17.561,4.738c9.825-5.494,20.292-4.536,30.792-3.246
			c6.293,13.879,10.942,28.412,16.728,42.473c8.143,19.791,17.273,39.175,25.956,58.744c3.533,7.962,6.716,16.094,10.596,23.881
			c2.456,4.929,1.963,9.2-1.175,13.204c-3.126,3.988-6.564,7.76-10.122,11.375c-5.048,5.129-11.329,9.083-14.032,16.837
			c-6.673-6.004-13.54-7.721-21.068-7.381c-1.807,0.082-3.631-0.24-5.443-0.2c-6.339,0.138-11.14-2.663-14.928-7.554
			c-3.982-5.141-8.008-10.249-12.44-15.916c3.283-1.207,6.324-2.071,9.144-3.404c12.024-5.687,20.882-14.327,24.805-27.375
			c0.413-1.374,0.768-2.844,0.711-4.251c-0.038-0.913-0.656-2.23-1.396-2.599c-1.548-0.77-2.663,0.114-3.135,1.768
			c-0.597,2.097-1.021,4.272-1.876,6.261c-5.896,13.721-16.347,21.523-30.587,24.284c-2.252-2.789-1.833-5.449-2.182-7.914
			C1370.039,589.233,1364.927,579.923,1356.125,572.648z M1476.811,669.561c1.299,1.24,2.09,2.713,2.06,4.562l0.234,0.81
			c0,0.001,0,0.001,0,0.002c1.827,1.317,2.295,3.328,2.732,5.356c1.11,0.513,1.456,1.369,1.134,2.525
			c0,0.001-0.001,0.001-0.001,0.002c0-0.001,0.001-0.001,0.001-0.002c0.542,0.366,0.748,0.87,0.616,1.512c0,0,0,0,0,0c0,0,0,0,0,0
			c4.353,5.515,7.45,11.76,10.488,18.039c3.714,5.686,7.427,11.373,11.141,17.059c3.442,3.306,6.438,6.958,8.689,11.188
			c1.424,1.437,2.847,2.874,4.269,4.308c2.76,0.964,4.532,3.203,6.576,5.091c0.686,0.447,1.336,0.94,1.95,1.481
			c2.588,1.011,4.808,2.569,6.742,4.549c4.052,1.685,7.616,4.109,10.791,7.122c2.584,2.453,2.583,2.594-0.008,3.767
			c-0.752-0.152-1.504-0.304-2.255-0.456c-0.727-0.438-1.402-0.945-2.025-1.52l-0.251-0.155c-1.242-0.054-2.06-0.711-2.567-1.808
			c-2.576-0.939-4.938-2.204-6.691-4.398c-1.764-0.138-2.951-1.189-3.971-2.506c-1.214-0.098-1.986-0.778-2.464-1.849
			c-0.831,0.044-1.414-0.314-1.75-1.075c-0.749-0.182-1.298-0.617-1.647-1.303l-0.548-0.392c-1.118-0.1-1.733-0.756-2.003-1.797
			l-0.18-0.147c-1.226-0.235-1.927-0.971-2.109-2.206c0,0,0-0.001,0-0.002c0,0,0,0-0.001,0c-1.163-0.406-1.894-1.192-2.129-2.416
			c-1.295-0.035-1.842-0.888-2.169-1.982c0,0,0,0,0,0s0,0,0,0c-4.026-2.677-6.618-6.528-8.783-10.728
			c-4.604-5.068-8.422-10.651-11.116-16.97c-4.426-5.496-7.973-11.492-10.333-18.163c-0.547-0.378-0.754-0.892-0.619-1.543
			c-1.828-0.936-2.159-2.665-2.362-4.461l0,0c0,0,0,0,0,0c-3.262-4.658-5.407-9.807-6.744-15.314l0.001,0c0,0-0.001,0-0.001,0
			c-3.06-4.135-3.966-9.173-5.719-13.848c-0.484-1.292-0.328-3.027,1.361-3.392c0.716-0.155,2.188,0.764,2.489,1.523
			c1.716,4.328,3.182,8.755,4.733,13.148h0c0.532,0.487,0.696,1.076,0.49,1.768c-0.008,0.001-0.016,0.002-0.024,0.003
			C1476.404,666.097,1476.814,667.741,1476.811,669.561z M1465.786,767.799C1465.786,767.8,1465.786,767.8,1465.786,767.799
			L1465.786,767.799c2.546,2.633,5.083,5.273,6.593,8.692c1.103,0.372,1.869,1.027,1.92,2.284c0,0,0,0,0,0.001c0,0,0,0,0.001-0.001
			c1.228,0.218,2.011,0.891,2.205,2.163c0,0,0,0.001,0,0.001c0,0,0,0,0.001-0.001c1.223,0.147,1.999,0.843,2.417,1.973
			c3.781,2.882,7.562,5.764,11.343,8.646c7.125,2.926,14.249,5.853,21.374,8.779c8.636,0.268,17.27,0.537,25.905,0.805
			c0.001,0,0.001,0.001,0.002,0.001c0,0,0-0.001,0-0.001c2.334-0.201,4.671-0.402,7.008-0.604c0.361-0.524,0.83-0.659,1.414-0.407
			c0.001,0.001,0.002,0.001,0.003,0.001c0-0.001-0.001-0.001-0.001-0.002c4.468-2.14,8.92-4.315,13.428-6.367
			c0.436-0.199,1.441,0.184,1.775,0.614c0.347,0.446,0.511,1.499,0.221,1.904c-2.617,3.659-6.127,5.878-10.709,6.19
			c-1.377,0.26-2.753,0.519-4.134,0.78c-0.002-0.001-0.004-0.002-0.007-0.003c0.001,0.001,0.002,0.002,0.002,0.004
			c-4.461,3.046-9.684,2.192-14.542,2.42c-16.014,0.751-31.325-1.762-44.65-11.611c-4.317-1.953-7.994-4.695-10.682-8.656
			c0,0,0,0,0-0.001c0,0,0,0-0.001,0c-1.103-0.334-1.985-0.875-2.047-2.184l-0.229-0.217c-1.297-0.135-1.968-0.907-2.179-2.145
			c-1.256-0.128-1.903-0.919-2.233-2.054c-3.331-1.828-5.2-4.877-6.806-8.146c-2.953-2.532-4.943-5.678-6.001-9.418
			c-0.549-0.354-0.757-0.85-0.623-1.49c0,0,0,0,0-0.001c0,0,0,0-0.001,0c-4.236-4.51-6.083-10.316-8.163-15.881
			c-3.092-8.272-6.342-16.56-6.994-25.526c0-0.001,0-0.002-0.001-0.003c-1.442-2.209-2.032-4.604-1.567-7.228
			c-0.206-1.92-0.413-3.841-0.619-5.761c-0.061-0.135-0.107-0.272-0.159-0.408c-1.472-3.612-1.883-7.365-1.375-11.239
			c-0.049-2.204-0.098-4.409-0.147-6.614c-1.191-8.016-0.806-16.055-0.333-24.094c0.09-1.524,1.316-1.191,2.259-1.295c0,0,0,0,0,0
			c0.411,0.547,1.16,1.081,1.184,1.644c0.504,12.042,0.927,24.086,1.366,36.131c0,0.001,0.001,0.003,0.001,0.004
			c1.398,3.027,2.041,6.18,1.588,9.517c2.954,16.698,8.233,32.656,15.282,48.051c0.571,0.326,0.824,0.816,0.763,1.47
			C1462.57,761.029,1464.146,764.435,1465.786,767.799z M1563.609,780.915C1563.609,780.915,1563.609,780.915,1563.609,780.915
			L1563.609,780.915c0.163,1.323-0.531,2.024-1.753,1.98c-1.149-0.042-1.988-0.654-1.889-2.008
			c-0.352-6.585-4.543-11.678-6.81-17.518c0,0,0,0,0,0s0,0,0,0c0,0,0,0,0,0c-0.291-1.759,0.204-2.515,2.022-1.586
			c3.994,2.213,5.435,6.125,6.739,10.127c1.146,1.347,2.006,2.79,1.576,4.668c0,0,0,0,0,0c0,0,0,0,0,0
			C1563.532,778.023,1563.57,779.469,1563.609,780.915z M1433.843,1047.918c-1.233-1.304-2.75-2.348-4.183-3.453
			c-8.64-6.655-17.689-12.707-27.071-18.264c-9.724-5.76-18.865-12.291-26.795-20.401c-1.262-1.291-2.422-2.702-3.463-4.175
			c-0.336-0.475-0.411-1.503-0.114-1.956c0.294-0.448,1.264-0.777,1.841-0.665c5.474,1.067,10.056,4.109,14.622,7.036
			c11.613,7.446,23.104,15.08,34.662,22.61c2.121,1.382,4.258,2.771,6.516,3.9c2.439,1.219,5.254,0.023,6.3-2.405
			c1.069-2.483-0.185-4.442-1.972-5.646c-5.106-3.443-10.473-6.498-15.635-9.863c-8.816-5.746-17.614-11.522-26.304-17.456
			c-5.731-3.914-10.802-8.594-14.393-14.632c-0.454-0.764-0.524-2.187-0.111-2.944c0.788-1.445,2.327-1.62,3.736-0.798
			c12.85,7.503,25.573,15.207,37.675,23.894c7.376,5.294,14.752,10.592,22.239,15.725c2.366,1.622,5.021,2.894,7.679,3.997
			c1.904,0.79,3.588-0.405,4.726-1.845c1.25-1.582,1.168-3.51-0.253-4.948c-1.515-1.533-3.24-2.903-5.028-4.114
			c-15.322-10.377-29.824-21.946-45.901-31.238c-5.368-3.102-10.052-7.238-12.697-13.113c-0.618-1.372-0.48-2.973,0.977-3.83
			c0.845-0.497,2.189-0.951,2.973-0.622c8.347,3.501,16.825,6.775,24.369,11.907c11.706,7.963,23.375,15.979,35.039,24.003
			c2.691,1.851,5.275,3.859,7.954,5.728c1.926,1.343,3.99,1.74,6.054,0.28c2.173-1.538,3.034-4.333,1.526-6.717
			c-6.949-10.978-10.457-24.097-20.561-33.117c-0.514-0.459-0.959-1.181-1.084-1.847c-0.206-1.101,0.141-2.124,1.451-2.369
			c6.156-1.154,11.502,0.782,16.229,4.565c5.766,4.615,10.177,10.442,13.304,17.045c2.785,5.881,5.145,12.012,7.13,18.213
			c3.498,10.927,9.177,20.312,16.969,28.799c12.881,14.029,27.182,26.025,43.626,35.749c14.047,8.307,27.459,17.699,42.158,24.9
			c10.407,5.098,20.911,9.997,32.114,15.338c-5.125,11.894-9.685,23.329-12.932,34.816c-2.891,1.668-4.591-0.293-6.391-1.143
			c-27.897-13.177-55.384-27.137-81.567-43.526c-9.948-6.227-20.743-10.308-32.054-13.227c-14.79-3.817-29.814-6.577-44.936-8.34
			c-14.743-1.719-27.16-7.43-37.534-17.821c-10.779-10.797-21.469-21.684-32.183-32.546c-0.762-0.772-1.404-1.663-2.094-2.505
			c-0.824-1.007-0.636-2.076,0.178-2.868c0.357-0.347,1.36-0.433,1.835-0.187c2.251,1.168,4.511,2.359,6.607,3.781
			c14.122,9.577,28.194,19.228,42.305,28.82c2.389,1.624,4.782,3.314,7.379,4.54c2.276,1.074,4.245-0.243,5.592-2.102
			C1435.569,1051.199,1435.186,1049.338,1433.843,1047.918z M1533.661,838.593c-2.526-1.413-5.101-2.739-8.598-4.611
			c-2.262,4.156-4.023,7.291-5.693,10.473c-15.525,29.577-31.035,59.161-46.547,88.745c-0.843,1.608-1.63,3.246-2.501,4.838
			c-1.791,3.271-4.437,5.27-5.184,3.943c-1.343-2.387,0.454-4.103,1.364-5.851c17.278-33.167,34.631-66.295,51.974-99.428
			c0.673-1.287,1.288-2.623,2.115-3.807c1.756-2.513,4.753-3.382,7.623-2.109c2.314,1.027,4.532,2.285,6.746,3.523
			c44.354,24.807,88.716,49.599,133.016,74.5c3.025,1.7,7.029,2.386,8.317,6.429c-4.5,2.881-7.367-1.089-10.486-2.823
			C1621.71,887.894,1577.699,863.22,1533.661,838.593z M1402.017,704.645c0.425,2.629-0.161,5.062-1.427,7.363
			c-0.21,9.156-0.421,18.313-0.632,27.469c0.618,4.663,1.131,9.329,0.548,14.039c0.001,0.002,0.001,0.003,0.001,0.005
			c0-0.001,0-0.001,0-0.002c1.881,5.375,1.965,10.926,1.585,16.521c0.746,6.55,0.64,13.104,0.082,19.659
			c0.55,4.005,0.127,7.874-1.609,11.56c-0.001,0.002-0.001,0.003-0.002,0.005c-0.172,1.229-0.344,2.459-0.515,3.688c0,0,0,0,0,0
			c0,0,0,0,0,0c0.392,2.632-0.238,5.014-1.753,7.18c-0.796,8.908-4.589,16.473-10.444,23.079c-0.936,1.056-2.078,1.989-3.28,2.728
			c-0.93,0.572-2.146,0.512-2.847-0.496c-0.313-0.45-0.216-1.244-0.161-1.869c0.027-0.309,0.335-0.634,0.588-0.877
			c7.002-6.743,10.506-15.25,12.479-24.555c0.371-1.749,0.987-3.445,1.489-5.166c-0.001,0-0.001,0-0.002,0
			c0.06-0.716,0.118-1.432,0.176-2.148c-0.366-2.592,0.226-4.999,1.418-7.288c0.019-11.743,0.039-23.486,0.058-35.228
			c0-0.002-0.001-0.005-0.001-0.007c0,0.001,0,0.002,0,0.003c-1.684-5.371-1.997-10.879-1.582-16.457
			c0.227-0.215,0.45-0.347,0.669-0.403c-0.118-0.597-0.324-1.179-0.692-1.734c-0.879-7.259-0.989-14.517,0.032-21.773
			c0.029-0.761,0.058-1.523,0.087-2.284c-0.57-3.301,0.009-6.421,1.477-9.401c0.238-1.93,0.476-3.859,0.714-5.789
			c-0.354-1.884,0.028-3.55,1.455-4.907c0.183-1.371,0.307-2.752,0.566-4.108c0.213-1.114,1.023-1.807,2.121-1.898
			c2.301-0.191,1.885,1.68,1.665,2.792c-0.535,2.713-1.405,5.36-2.14,8.034C1402.1,703.135,1402.059,703.89,1402.017,704.645
			C1402.017,704.645,1402.017,704.645,1402.017,704.645z M1351.773,721.276C1351.773,721.276,1351.774,721.276,1351.773,721.276
			C1351.774,721.276,1351.773,721.276,1351.773,721.276c0.185-1.696,0.49-3.327,2.25-4.174c0,0,0,0,0,0c0,0,0,0,0,0
			c-0.171-0.659,0.03-1.172,0.604-1.539c2.93-8.007,5.861-16.014,8.791-24.021c-0.322-2.691,0.274-5.194,1.556-7.557
			c0.001-0.002,0.001-0.004,0.002-0.005c0.21-3.32,0.42-6.639,0.629-9.959c-0.124-7.009-0.698-14.054,1.718-20.854
			c-0.65-1.796-0.264-3.521,0.358-5.23c0,0,0,0,0,0c0,0,0,0,0,0c-0.458-3.748,1.414-6.925,2.655-10.223
			c0.299-0.793,1.597-1.736,2.406-1.708c2.022,0.068,1.732,1.964,1.463,3.13c-1.28,5.538-2.76,11.031-4.17,16.539
			c0.426,7.614,0.126,15.206-0.7,22.782c0.489,3.411,0.235,6.71-1.464,9.794c0.014,3.046,0.086,6.105-2.03,8.651c0,0,0,0,0,0
			c0,0,0,0,0,0c-1.465,7.734-4.337,14.884-8.86,21.349c0,0,0,0-0.001,0c0,0,0,0,0,0c0.168,0.671-0.042,1.189-0.629,1.555
			c0.225,1.896-1.027,3.1-2.065,4.404c-3.283,8.13-7.949,15.4-13.692,21.999c-0.257,0.723-0.702,1.295-1.362,1.694l-0.334,0.472
			c-0.053,1.138-0.706,1.768-1.744,2.073l-0.088,0.113c-0.137,1.271-0.872,2.059-2.019,2.517c-1.015,2.437-2.578,4.458-4.638,6.101
			c-4.945,7.444-9.889,14.889-14.834,22.333c0,0-0.001,0-0.001,0c0,0,0.001,0.001,0.001,0.001c0.098,0.641-0.11,1.161-0.624,1.557
			c-1.579,4.716-3.509,9.272-6.157,13.5c-0.828,2.801-1.655,5.602-2.483,8.403c0.15,3.479-0.208,6.862-1.9,9.991
			c0.832,2.805,0.697,5.611,0.003,8.417c0.001,0.003,0.002,0.007,0.003,0.01c0-0.002,0-0.004,0-0.007
			c1.443,3.176,2.112,6.493,1.769,9.989c0,0,0,0,0,0c0.92,2.696,1.839,5.393,2.759,8.089c3.507,3.255,7.014,6.51,10.521,9.765
			c1.65,0.596,3.279,1.257,4.955,1.769c1.845,0.564,3.699,1.718,2.835,3.558c-0.72,1.534-3.103,1.401-4.834,0.818
			c-2.67-0.899-5.288-1.958-7.156-4.243c-4.009-1.863-7.229-4.491-8.632-8.885c0-0.001,0.001-0.002,0.001-0.002
			c0,0.001-0.001,0.001-0.001,0.002c-1.617-1.761-2.702-3.746-2.611-6.225c0,0,0,0,0-0.001c0,0,0,0,0,0
			c-2.592-2.921-2.611-6.39-2.126-9.967c0-0.002-0.001-0.004-0.001-0.006c0,0.002,0,0.004,0,0.006
			c-2.492-5.927-2.23-11.856-0.011-17.787c-0.696-6.684,1.986-12.521,4.611-18.372c1.098-4.302,2.699-8.346,5.917-11.564
			c0,0,0,0,0.001,0c0,0,0,0,0,0c-0.031-0.65,0.236-1.137,0.801-1.459h0c3.79-8.223,8.604-15.774,14.724-22.47c0,0,0,0,0.001,0
			c0,0,0,0,0,0c0.869-2.495,2.448-4.463,4.515-6.067c0.168-1.288,0.912-2.11,2.083-2.588c0,0,0-0.001,0.001-0.002
			c0.965-1.298,1.931-2.596,2.896-3.894c0.442-0.773,0.985-1.47,1.627-2.088l0.111-0.169c0.096-1.254,0.793-2.061,1.903-2.561
			C1344.642,733.113,1348.207,727.195,1351.773,721.276z M1359.885,857.144c0.78-1.112,1.789-1.86,3.196-1.959l0.145-0.082
			c0.631-0.706,1.372-1.267,2.223-1.683c0.191-0.642,0.609-0.87,1.253-0.685c0.002-0.001,0.004-0.001,0.005-0.002
			c0.978-0.808,2.009-1.995,2.573,0.344c0.082,0.353,0.357,0.842,0.218,1.039c-4.729,6.716-11.55,9.196-19.421,9.331
			c-1.004,0.017-1.999-0.971-1.836-2.216c0.074-0.561,0.677-1.364,1.19-1.504c3.461-0.943,6.962-1.737,10.45-2.58
			c0.023-0.002,0.044-0.008,0.067-0.01C1359.926,857.138,1359.906,857.142,1359.885,857.144z M942.071,345.799
			c-8.62-26.207-17.282-52.4-26.102-78.54c-7.383-21.883-18.373-41.776-32.783-59.907c-13.642-17.165-24.892-35.812-31.043-57.086
			c-2.214-7.658-3.93-15.482-5.424-23.317c-0.67-3.51-0.216-7.231-0.313-10.855c-0.026-0.981,0.338-1.492,1.259-1.302
			c0.661,0.137,1.602,0.314,1.862,0.782c2.997,5.396,5.89,10.849,8.804,16.291c4.049,7.559,9.535,13.718,17.37,17.478
			c1.585,0.761,3.4,1.168,5.155,1.413c1.524,0.212,2.868-0.688,3.65-1.946c0.783-1.263,0.847-2.743,0.049-4.129
			c-0.18-0.313-0.277-0.754-0.547-0.926c-5.934-3.777-5.526-9.766-5.246-15.56c0.192-3.975,0.737-7.961,1.475-11.876
			c2.972-15.759,1.852-31.007-4.398-45.951c-4.622-11.05-8.401-22.445-11.005-34.173c-0.998-4.496-3.529-10.051,1.605-12.886
			c4.307-2.378,7.956,2.08,11.248,4.709c2.823,2.254,5.373,4.9,7.8,7.592c9.284,10.298,17.271,21.564,24.042,33.643
			c8.921,15.915,12.018,33.357,12.593,51.34c0.49,15.339-1.196,30.546-4.455,45.479c-3.58,16.406-1.109,31.6,6.328,46.47
			c15.268,30.526,29.913,61.367,46.827,91.044c20.503,35.975,40.474,72.254,62.363,107.432c7.26,11.667,13.58,23.917,20.979,37.054
			c-12.188,3.177-22.072,8.47-31.429,14.806c-11.119,7.529-22.174,15.154-33.525,22.92c-2.336-2.155-2.879-4.9-3.74-7.531
			C971.029,434.102,956.59,389.938,942.071,345.799z M987.645,542.932c-10.573-0.305-17.633-12.661-12.746-21.991
			c1.346-2.571,3.234-4.953,4.089-7.669c2.666-8.463,8.383-14.2,15.509-18.996c12.654-8.515,25.169-17.235,37.783-25.81
			c5.426-3.688,11.278-6.547,17.469-8.766c3.125-1.12,6.27-1.808,10.097-1.875c3.439-0.211,6.544,1.251,8.665,4.678
			c1.911,3.086,4.029,6.062,5.729,9.259c2.389,4.494,1.938,8.161-1.697,11.877c-4.059,4.149-8.342,8.101-12.733,11.9
			c-16.5,14.273-32.649,28.919-47.706,44.723c-3.284,3.448-6.481,5.385-11.484,3.593
			C996.502,542.38,992.003,543.058,987.645,542.932z M1448.756,2602.637c-10.051,11.698-31.96,19.721-50.203,6.046
			c-2.428-1.82-4.066-3.843-3.81-7.263c2.233-29.769,1.643-59.58,1.124-89.387c-0.063-3.635-0.001-7.271,0.001-10.907
			c0.001-2.45,0.978-4.361,3.521-4.705c15.898-2.148,30.859-7.811,46.632-12.755c0.634,9.914,1.331,19.292,1.814,28.681
			c1.083,21.057,2.013,42.122,3.111,63.177c0.283,5.44,0.714,10.896,1.524,16.278
			C1453.137,2596.224,1451.484,2599.462,1448.756,2602.637z M1466.568,2591.89c-3.718,1.321-5.255,0.348-5.61-3.662
			c-0.384-4.338-0.774-8.678-1.004-13.025c-1.453-27.544-2.873-55.089-4.275-82.636c-0.166-3.261-0.18-6.531-0.213-9.797
			c-0.015-1.532,0.486-3.019,1.985-3.551c4.314-1.532,8.207-4.351,12.734-4.797c1.361,2.109,0.944,3.921,0.787,5.711
			c-2.654,30.205-0.686,60.176,4.535,89.985c0.313,1.786,0.646,3.572,0.874,5.37
			C1477.593,2585.033,1475.344,2588.773,1466.568,2591.89z M1487.921,2114.575c6.009,33.935,12.999,67.702,19.909,101.472
			c6.185,30.229,11.465,60.613,16.553,91.036c4.071,24.339,8.23,48.665,12.162,73.027c2.66,16.481,5.025,33.011,7.452,49.529
			c0.664,4.519,0.118,5.704-3.593,6.524c-14.972,3.31-28.707,10.063-43.023,15.191c-3.58,1.282-4.544,0.745-4.937-2.974
			c-2.364-22.385-4.633-44.782-7.053-67.162c-2.576-23.824-5.351-47.626-7.915-71.452c-2.564-23.827-4.973-47.67-7.451-71.507
			c-2.515-24.197-5.176-48.38-7.514-72.594c-3.7-38.303-8.722-76.529-7.238-115.163c0.585-15.238,0.84-30.501,4.044-45.505
			c2.619-1.352-1.57-6.842,3.92-6.449C1471.499,2037.217,1481.02,2075.601,1487.921,2114.575z M1668.28,1395.329
			c3.277,21.932,5.876,43.965,6.1,66.182c0.186,18.526,0.773,37.025-0.785,55.576c-4.097,48.76-17.406,94.732-39.052,138.574
			c-24.33,49.277-52.53,96.26-82.651,142.123c-18.944,28.846-38.496,57.293-56.165,86.958c-5.017,8.422-9.771,17-14.767,25.436
			c-14.63,24.703-22.833,51.655-28.387,79.615c-7.359,37.042-7.918,74.398-4.942,111.823c2.736,34.409,6.245,68.76,9.742,103.104
			c3.828,37.594,8.039,75.15,12.07,112.724c3.217,29.988,6.416,59.977,9.621,89.966c1.429,13.367,2.855,26.734,4.271,40.102
			c0.153,1.446,0.026,2.951,0.379,4.34c1.273,5.003-1.5,7.376-5.563,9.077c-4.351,1.821-8.608,3.876-13.008,5.565
			c-16.252,6.238-32.466,12.619-49.305,17.147c-19.719,5.303-39.901,8.205-60.214,9.202c-13.665,0.67-12.784,1.388-14.477-12.413
			c-2.83-23.073-6.259-46.073-9.32-69.118c-3.348-25.208-6.794-50.406-9.777-75.658c-3.111-26.339-5.998-52.712-8.486-79.116
			c-4.022-42.689-9.017-85.275-12.198-128.058c-3.293-44.286-4.935-88.573-3.321-132.928c1.521-41.804,5.84-83.356,13.699-124.493
			c1.567-8.203,2.916-16.447,4.462-24.654c3.441-18.263,9.5-35.745,15.789-53.174c12.946-35.875,28.578-70.654,42.912-105.963
			c16.251-40.033,34.358-79.259,51.582-118.868c2.457-5.651,5.495-11.046,8.186-16.598c0.943-1.946,1.9-3.948,2.388-6.032
			c0.454-1.939-0.685-3.487-2.481-4.358c-1.541-0.747-2.901-0.057-3.816,1.083c-1.12,1.395-2.051,2.975-2.869,4.574
			c-4.627,9.047-9.574,17.955-13.719,27.22c-17.192,38.435-34.346,76.891-50.25,115.886c-13.021,31.926-27.054,63.441-38.88,95.852
			c-1.865,5.113-3.712,10.233-5.516,15.368c-0.478,1.36-0.635,3.081-2.238,3.439c-2.41,0.538-2.86-1.925-3.578-3.237
			c-3.134-5.727-6.215-11.512-8.84-17.485c-17.766-40.43-30.088-82.497-36.992-126.096c-2.101-13.265-3.448-26.674-4.576-40.064
			c-2.44-28.973-4.56-57.973-6.726-86.968c-2.308-30.887-1.003-61.78,0.348-92.648c0.969-22.149,2.842-44.249,5.441-66.277
			c0.164-1.386,0.455-2.758,0.811-4.875c75.363,8.553,149.858,8.69,224.389,6.567c29.422-0.838,58.831-2.499,88.172-5.057
			c2.896-0.253,5.802-0.431,8.707-0.546c22.517-0.889,45.086-0.564,67.55-2.613c4.396-0.401,6.839,1.277,8.561,4.912
			C1664.316,1378.375,1666.995,1386.726,1668.28,1395.329z M1678.029,1334.671c1.396,10.362-1.874,15.772-11.751,19.073
			c-6.226,2.082-12.711,3.004-19.277,3.238c-14.888,0.531-29.789,0.832-44.663,1.627c-25.759,1.377-51.489,3.32-77.254,4.55
			c-38.48,1.836-76.985,2.823-115.521,2.797c-40.37-0.027-80.636-2.167-120.874-5.035c-9.039-0.644-18.115-1.541-26.916-3.949
			c-3.134-0.857-6.244-1.92-9.216-3.228c-7.519-3.308-12.583-8.208-11.826-17.421c0.29-3.528-0.754-7.188-1.353-10.761
			c-1.211-7.223-1.491-14.469-0.482-21.716c0.972-6.978,3.258-9.236,10.45-10.361c3.583-0.56,7.22-0.939,10.843-1.046
			c18.887-0.554,37.776-1.26,56.668-1.41c26.89-0.214,53.772-0.051,80.661-1.179c18.139-0.761,36.336-0.145,59.033-0.145
			c35.814-0.492,76.151-1.021,116.487-1.611c23.271-0.341,46.506,0.796,69.751,1.517c1.089,0.034,2.19,0.281,3.262,0.18
			c12.684-1.186,19.636,6.461,23.933,16.683C1673.764,1315.465,1676.712,1324.893,1678.029,1334.671z M1671.145,1258.069
			c-1.112,4.586-1.767,9.292-3.063,13.82c-0.993,3.467-1.887,7.517-4.249,9.893c-2.782,2.799-6.817-0.406-10.348-0.479
			c-2.905-0.06-5.804-0.377-8.708-0.534c-41.787-2.261-83.597-2.264-125.407-0.943c-34.175,1.08-68.358,0.363-102.533,0.803
			c-47.987,0.619-95.97,1.6-143.955,2.41c-0.708,0.012-1.419-0.182-2.993-0.399c-3.858-7.73-6.103-16.403-7.071-25.368
			c-2.313-21.434-0.979-42.831,1.159-64.201c0.904-9.041,1.963-18.071,2.637-27.13c1.46-19.602,4.97-38.917,7.818-58.327
			c2.584-17.614,5.305-35.209,7.712-52.848c2.112-15.478,4.249-30.969,5.695-46.517c2.063-22.18,1.485-44.366-3.261-66.199
			c-5.76-26.496-20.132-47.126-43.548-61.182c-3.736-2.242-7.502-4.437-11.274-6.62c-8.513-4.929-16.6-10.429-23.926-17.044
			c-5.947-5.37-12.231-10.268-19.887-13.133c-4.534-1.697-8.091-4.793-10.979-8.667c-2.606-3.497-5.267-6.953-7.856-10.462
			c-5.947-8.063-13.271-14.389-22.635-18.214c-2.011-0.822-3.936-1.858-5.885-2.827c-4.822-2.399-8.124-5.996-9.152-11.458
			c-0.403-2.139-1.336-4.219-1.476-6.361c-0.573-8.758-5.477-14.78-12.087-19.781c-2.317-1.753-4.718-3.398-7.107-5.055
			c-5.556-3.853-9.532-8.864-11.589-15.373c-0.874-2.766-1.968-5.465-2.991-8.183c-3.496-9.288-9.625-16.093-18.767-20.176
			c-3.972-1.774-7.817-3.836-11.696-5.814c-7.503-3.826-12.59-9.622-14.875-17.863c-1.064-3.838-2.406-7.625-3.931-11.306
			c-4.474-10.797-11.547-15.017-23.159-13.76c-3.596,0.39-7.128,1.365-10.696,2.04c-3.923,0.742-7.844,1.989-11.783,2.065
			c-12.028,0.233-16.712-4.878-17.211-14.933c-0.364-7.333,0.813-14.556,2.192-21.656c4.228-21.765,10.254-43.09,16.945-64.213
			c3.217-10.154,8.383-19.306,15.817-27.056c3.271-3.41,6.382-7.013,9.934-10.106c17.258-15.034,34.661-29.901,51.951-44.898
			c1.992-1.728,3.758-1.653,5.903-0.538c18.387,9.556,36.879,18.934,51.667,33.973c5.738,5.835,12.506,9.717,20.663,11.388
			c5.667,1.161,11.255,2.898,16.717,4.833c11.441,4.054,20.195,11.449,25.609,22.383c3.7,7.474,7.632,14.941,10.267,22.812
			c5.304,15.845,14.911,28.139,28.514,37.458c10.488,7.186,21.071,14.239,31.75,21.137c16.493,10.654,32.735,21.634,48.044,33.971
			c9.347,7.532,19.481,13.972,29.72,20.22c1.914,1.168,2.275,2.46,1.426,4.458c-3.88,9.125-9.495,17.141-15.739,24.75
			c-6.226,7.588-12.623,15.038-18.766,22.693c-12.668,15.788-21.886,33.348-26.806,53.07c-3.753,15.046-4.349,30.145-1.126,45.375
			c2.306,10.898,6.873,20.644,14.317,28.959c8.669,9.683,19.526,14.891,32.53,15.491c13.246,0.611,26.069-1.37,38.386-6.391
			c12.841-5.236,23.086-13.543,30.438-25.385c8.472-13.646,15.851-27.664,18.442-43.851c2.035-12.712,1.512-25.365,0.346-38.034
			c-1.367-14.846-4.113-29.49-6.786-44.153c-4.31-23.646-0.729-46.285,9.902-67.818c0.475-0.961,1.109-1.87,1.811-2.681
			c0.419-0.485,1.113-0.732,1.741-1.122c-0.827,9.432-1.614,18.827-2.481,28.214c-3.082,33.366,4.325,64.359,21.915,92.722
			c9.566,15.424,22.583,27.419,39.705,34.395c-9.63,19.857-19.228,39.729-28.894,59.569c-13.629,27.975-27.307,55.925-40.964,83.886
			c0,0,0,0,0,0c-5.253-2.139-10.495-4.309-15.765-6.405c-2.977-1.184-6.005-2.145-9.276-2.25c-7.92-0.255-10.793,2.734-11.023,11.65
			c0.327,2.435,1.02,5.158-3.176,4.026c-1.429-0.098-2.923-0.512-4.275-0.236c-4.739,0.97-7.122,3.737-6.688,8.225
			c0.304,3.139,1.372,6.204,2.099,9.302c-10.23,5.5-10.447,5.995-5.426,17.222c0.777,1.738,0.124,2.652-0.74,3.741
			c-5.427,6.847-5.765,9.37-0.703,15.889c3.961,5.102,8.54,9.724,12.973,14.704c-1.153,3.672-2.327,7.407-3.5,11.143
			c-4.82,21.789-16.114,41.05-24.162,61.578c-4.368,11.14-9.194,22.126-14.202,33.004c-3.323,7.216-2.112,12.041,5.193,16.104
			c62.158,34.569,124.309,69.156,185.869,104.785c6.97,4.034,8.964,0.278,11.131-4.776c9.009-21.018,18.598-41.792,28.536-62.362
			c7.687-15.911,12.474-33.339,23.802-47.428c3.924-4.715,3.925-4.717,8.54-2.711c1.331,0.579,2.626,1.255,3.987,1.75
			c2.884,1.051,4.852,2.435,5.268,6.034c0.62,5.366,4.218,9.081,8.525,12.109c5.085,3.574,10.67,6.188,16.359,8.599
			c5.01,2.124,10.017,4.26,15.081,6.249c5.375,2.111,7.982,5.76,7.753,11.701c-0.224,5.803,0.361,11.558,1.416,17.338
			c2.19,12.003,6.338,23.169,13.527,32.973C1671.632,1248.33,1672.42,1252.81,1671.145,1258.069z M1825.362,1089.872
			c-2.886,31.959-8.825,63.251-23.281,92.448c-6.959,14.056-14.383,27.83-23.91,40.202c-13.648,17.723-30.98,30.761-53.294,35.536
			c-19.348,4.14-35.451-0.885-49.568-21.269c-8.317-12.009-11.441-25.759-12.297-40.127c-0.151-2.539-0.19-5.085-0.302-7.627
			c-0.282-6.393-3.506-11.058-8.945-14.027c-4.125-2.252-8.569-3.916-12.854-5.88c-6.26-2.87-12.672-5.468-18.708-8.755
			c-5.502-2.997-8.56-5.504-6.241-14.322c4.358-16.567,10.208-32.543,18.492-47.579c0.35-0.635,0.77-1.233,1.176-1.836
			c4.344-6.454,5.928-7.267,13.652-5.443c12.713,3.001,25.367,6.259,38.03,9.47c3.891,0.987,7.758,2.1,9.973,5.982
			c0.333,0.584,1.001,1.095,1.632,1.37c1.751,0.763,3.561,0.817,5.134-0.417c1.197-0.939,1.761-2.282,1.638-3.832
			c-0.319-4.005-2.679-6.82-5.938-8.606c-3.15-1.726-6.566-3.204-10.046-4.045c-12.702-3.073-25.472-5.862-38.233-8.686
			c-2.121-0.469-4.314-0.704-6.487-0.835c-5.403-0.326-9.97,1.493-13.519,5.651c-0.943,1.105-1.808,2.277-2.716,3.412
			c-4.127,5.163-4.004,4.772-9.703,2.968c-4.482-1.419-2.681-4.318-2.637-6.964c0.643-0.84,1.481-1.595,1.901-2.536
			c25.144-56.348,50.257-112.71,75.343-169.085c0.727-1.633,1.272-3.382,1.637-5.132c0.578-2.771-0.269-5.007-2.976-6.309
			c-0.98-0.471-1.943-0.981-2.895-1.509c-40.942-22.728-81.873-45.477-122.846-68.148c-2.174-1.203-4.159-3.026-6.894-3.021
			c0,0,0,0,0,0c-3.561-2.388-7.121-4.775-10.708-7.18c0.554-2.716,2.994-2.629,4.784-3.453c4.941-2.274,9.982-4.362,14.788-6.894
			c4.869-2.565,8.946-6.215,12.229-10.675c7.657-10.4,8.798-21.286,2.129-32.577c-5.228-8.851-12.007-16.45-19.927-22.945
			c-6.178-5.065-12.608-9.833-19.053-14.561c-8.577-6.29-15.784-13.79-22.127-22.366c-16.088-21.752-28.551-45.452-39.407-70.138
			c-14.762-33.567-29.809-67.01-44.862-100.448c-5.667-12.589-11.069-25.265-15.454-38.366c-3.582-10.7-8.252-20.941-13.474-30.927
			c-4.235-8.097-9.452-15.507-15.936-21.99c-3.881-3.881-8.125-7.294-13.115-9.624c-10.445-4.875-20.433-4.09-29.797,2.781
			c-5.598,4.108-9.91,9.515-14.011,14.521c-3.077,0.39-3.291-1.783-3.928-3.3c-5.948-14.142-7.006-28.605-4.171-43.752
			c4.804-25.663,18.698-44.492,40.981-57.492c26.373-15.385,53.666-28.946,81.843-40.686c11.457-4.774,23.412-7.5,35.937-8.105
			c14.586-0.705,28.977-0.392,43.425,2.24c16.182,2.948,30.137,10.314,43.11,19.827c6.224,4.564,10.283,11.162,14.145,17.814
			c10.279,17.706,15.121,36.927,15.608,57.213c0.768,31.985,1.214,63.954-0.966,95.945c-1.829,26.853-4.03,53.658-7.631,80.309
			c-2.577,19.067-6.337,37.974-9.562,56.954c-2.86,16.83-6.479,33.546-7.975,50.583c-0.379,4.324-0.206,8.704-0.155,13.056
			c0.074,6.356,3.816,10.02,9.431,11.921c3.079,1.042,6.326,1.965,9.542,2.152c8.503,0.492,16.299,3.305,24.109,6.332
			c22.499,8.718,43.377,20.349,62.569,34.933c10.706,8.136,21.171,16.593,31.64,25.036c13.096,10.563,24.572,22.775,34.359,36.388
			c24.086,33.498,44.25,69.132,56.629,108.736c6.282,20.099,12.45,40.261,15.521,61.178
			C1825.384,1018.695,1828.584,1054.193,1825.362,1089.872z"/><path d="M1518.054 739.674c.665.597 1.331 1.193 1.994 1.788C1519.425 740.819 1518.76 740.223 1518.054 739.674zM1513.417 731.92c.079.045.153.078.239.143.441-.422.524-.905.249-1.449-.119.391-.237.782-.353 1.175C1513.51 731.837 1513.461 731.874 1513.417 731.92zM1516.91 735.435c.085.141.173.281.259.422.004-.019.008-.037.012-.056.33-.293.661-.585.993-.878-.55-.143-.972.029-1.267.514 0 .001 0 .001 0 .002C1516.906 735.439 1516.91 735.435 1516.91 735.435zM1477.501 783.193c.06.079.09.146.134.218.04-.041.072-.086.115-.125.388-.126.777-.25 1.166-.375-.032-.007-.76-.115-.76-.115l-.663.396c0 0-.001.001-.001.001C1477.494 783.193 1477.498 783.193 1477.501 783.193z"/><polygon points="1369.337 678.457 1369.337 678.457 1369.337 678.457"/><path fill="#d42488" d="M1475.976 2694.506c-.823-10.468-2.321-20.906-4.025-31.274-2.713-16.508-6.785-32.655-14.617-47.625-.833-1.593-1.266-3.427-3.559-4.031-18.242 15.175-38.002 17.939-59.533 5.306-.439 2.507-.861 4.228-1.029 5.973-2.93 30.422-10.059 60.008-17.603 89.526-1.971 7.714-3.696 15.531-4.879 23.399-3.109 20.688.812 39.685 14.548 56.079.669.798 1.045 1.842 1.558 2.771.775.155 1.549.309 2.326.461 3.939-.103 7.876-.277 11.814-.293 16.481-.066 32.962-.084 49.444-.119 8.73-8.467 15.647-17.972 18.52-30.121C1474.394 2741.502 1477.843 2718.24 1475.976 2694.506zM1412.978 2765.442c-.174.27-.541.507-.861.577-10.761 2.362-20.606-3.462-23.388-14.049-.82-3.12-1.262-6.409-1.362-9.636-.324-10.54 1.039-20.908 3.785-31.091 0 0 .001 0 .001 0 .192-1.959.384-3.917.577-5.874.01-.759.021-1.518.032-2.278 0 0 0 0 0 0 0 0 0 0 0 0-.336-3.267-.128-6.436 1.667-9.321-.486-5.888 1.337-11.487 2.179-17.207 1.635-11.106 3.314-22.206 5.026-33.3.33-2.14.759-4.305 2.315-5.98.158-.17.685-.08 1.008.008.309.085.642.268.85.508 1.107 1.277.559 2.739.361 4.133-1.878 13.269-3.709 26.545-5.698 39.797-1.182 7.877-2.624 15.715-3.948 23.571.295 3.172.315 6.293-1.647 9.054 0 0 0 0 0 0 0 0 0 0 0 0-.153 1.321-.307 2.643-.46 3.964.512 3.657-.191 7.213-.816 10.792-1.067 6.115-1.267 12.307-.321 18.42 1.484 9.59 5.348 13.17 14.882 14.388 1.791.229 3.628.101 5.417.341.501.067 1.233.837 1.268 1.327C1413.887 2764.186 1413.354 2764.859 1412.978 2765.442zM1373.899 1053.641c1.88-3.47 3.759-6.941 5.647-10.426 4.202.797 6.053 4.206 8.596 6.654 5.749 5.535 11.344 11.232 17.054 16.808 10.535 10.287 23.363 15.433 37.807 17.54 12.9 1.882 25.752 4.237 38.505 6.948 12.848 2.731 24.763 7.781 35.984 14.879 19.633 12.419 40.287 23.057 61.141 33.292 2.786 1.368 6.487 1.939 7.056 6.02-1.185 11.412-7.543 20.934-12.102 30.952-12.149 26.699-24.466 53.325-36.514 80.073-4.003 8.888-7.255 10.066-16.128 5.323-32.847-17.561-65.002-36.369-97.553-54.466-27.805-15.458-55.268-31.539-83.277-46.628-7.089-3.819-11.081-7.823-7.327-16.192 12.451-27.755 23.78-55.997 36.266-83.738C1370.248 1058.027 1371.265 1055.287 1373.899 1053.641z"/><path fill="#0c0608" d="M1373.899,1053.641c0.064,3.057-1.673,5.523-2.795,8.159
			c-11.515,27.055-23.101,54.08-34.662,81.116c-0.999,2.336-1.954,4.691-2.939,7.033c-0.822,1.955-0.332,3.527,1.435,4.646
			c1.531,0.971,3.108,1.873,4.688,2.763c59.815,33.653,119.626,67.313,179.469,100.916c3.434,1.928,6.676,4.396,10.602,5.098
			c3.311-2.498,4.087-6.222,5.577-9.46c15.782-34.3,31.473-68.642,47.227-102.955c0.893-1.945,2.117-3.739,3.187-5.602
			c0.121,1.744,0.43,3.396,2.138,4.362c0.266,2.744-1.477,4.832-2.503,7.087c-15.929,35.015-31.923,70.001-48.008,104.945
			c-1.481,3.218-2.247,6.967-5.662,9.376c-22.307-12.59-44.678-25.246-67.077-37.852c-43.015-24.209-86.052-48.379-129.064-72.593
			c-9.454-5.322-9.738-6.072-5.44-16.178c12.925-30.388,25.926-60.744,38.915-91.104c0.697-1.629,0.95-3.543,2.672-4.584
			C1371.971,1050.625,1372.058,1052.539,1373.899,1053.641z"/><path fill="#d12486" d="M1495.959,2657.946c0.162,7.886-1.651,12.655-7.239,15.513c-3.595,1.84-5.316,1.283-6.166-2.607
			c-1.084-4.958-2.111-9.937-2.928-14.945c-2.471-15.147-7.093-29.58-13.743-43.415c-4.295-8.934-3.852-9.722,4.853-12.266
			c2.055-0.6,3.901-1.902,5.855-2.858c1.849-0.905,2.839,0.426,3.217,1.729c4.946,17.055,9.829,34.128,14.624,51.226
			C1495.307,2653.445,1495.715,2656.697,1495.959,2657.946z"/><path fill="#201b1b" d="M1402.084,478.289c-2.538,1.547-5.187,2.177-8.238,1.825c-9.289-1.071-17.965,0.341-25.248,6.87
			c-0.72,0.645-1.929,1.01-2.833,0.011c-1.132-1.251-1.042-2.753-0.087-3.918c3.598-4.389,8.575-6.382,13.912-7.719
			c6.827-1.711,13.628-0.7,20.437,0.083C1401.406,475.89,1402.154,476.794,1402.084,478.289z"/><path fill="#c0cece" d="M1463.237,1998.551c-2.236,1.585-1.393,5.041-3.92,6.449c-0.668-4.121,0.215-7.872,2.607-11.335
			C1463.695,1995.023,1463.7,1996.727,1463.237,1998.551z"/><path fill="#6b2222" d="M1377.919,968.823c2.732-0.034,3.076-1.942,3.174-4.035c1.905,1.113,2.346,2.977,1.261,4.543
			C1380.939,971.374,1379.288,970.105,1377.919,968.823z"/><path fill="#11070c" d="M1498.386,822.184c-1.936,0.336-3.638-0.034-4.936-1.63
			C1495.391,820.201,1497.171,820.337,1498.386,822.184z"/><path fill="#c2c9c9" d="M1339.063,741.762c-0.542,0.696-1.084,1.392-1.627,2.088
			C1337.978,743.154,1338.52,742.458,1339.063,741.762z"/><path fill="#c3cbcb" d="M1520.605,741.863c0.55,0.435,1.1,0.871,1.649,1.305
			C1521.703,742.731,1521.154,742.297,1520.605,741.863z"/><path fill="#bac0c0" d="M1539.946,754.956c0.676,0.507,1.352,1.014,2.026,1.521
			C1541.296,755.97,1540.621,755.463,1539.946,754.956z"/><path fill="#d4d4d4" d="M1398.024,743.942c-0.611-0.049-1.223-0.079-1.836-0.09c-0.008-0.712-0.015-1.425-0.023-2.137
			C1396.784,742.457,1397.404,743.199,1398.024,743.942z"/><path fill="#acc8c8" d="M1365.449,853.42c-0.741,0.561-1.483,1.122-2.224,1.683
			C1363.967,854.542,1364.708,853.981,1365.449,853.42z"/><path fill="#c3cbcb" d="M1526.701,741.494c-0.651-0.494-1.302-0.988-1.952-1.482
			C1525.401,740.507,1526.05,741.001,1526.701,741.494z"/><path fill="#c2c9c9" d="M1339.234,747.903c0.455-0.566,0.91-1.132,1.363-1.696
			C1340.142,746.773,1339.688,747.338,1339.234,747.903z"/><path fill="#080707" d="M1709.453,1053.957c2.316-18.772,6.41-37.425,12.913-55.522c0.477-1.329,1.184-2.677,2.118-3.715
			c1.235-1.374,2.905-2.176,4.833-1.33c1.793,0.787,2.788,2.211,2.916,4.189c0.169,2.617-0.986,4.897-1.765,7.301
			c-4.456,13.76-7.911,27.788-10.787,41.953c-0.643,3.166-0.711,6.453-0.974,9.69c-0.152,1.868-0.686,3.576-2.03,4.879
			c-1.081,1.048-2.506,1.378-3.999,1.102c-1.578-0.292-2.573-1.355-2.815-2.855
			C1709.577,1057.888,1709.591,1056.079,1709.453,1053.957z"/><path fill="#d42488" d="M1682.571,901.391c-29.343-15.845-58.283-32.441-87.585-48.363
			c-12.934-7.028-25.096-15.746-39.568-19.739c-4.181-2.104-8.392-4.153-12.532-6.334c-2.62-1.38-5.205-2.405-8.267-1.654
			c-12.419,3.045-24.403,0.811-36.231-3.118c-1.489-1.019-3.368-0.854-4.937-1.629l-0.917,0.056
			c-3.356,1.265-4.84,4.208-6.295,7.129c-21.118,42.389-42.448,84.674-62.688,127.494c-1.626,3.44-4.172,7.002-1.268,11.062
			c2.805,1.66,5.654,3.251,8.404,4.998c2.76,1.753,5.343,3.792,8.147,5.463c2.627,1.565,4.835,4.13,8.937,4.553
			c-0.851-3.273-2.532-5.044-4.151-6.871c-1.926-2.173-3.959-4.276-5.667-6.612c-5.572-7.623-0.623-13.221,5.124-15.641
			c1.63-0.686,3.516-0.843,5.307-1.052c10.116-1.181,18.537,2.355,25.688,9.357c8.217,8.046,13.754,17.764,17.667,28.47
			c1.62,4.433,3.02,8.946,4.589,13.398c1.699,4.822,3.741,9.537,7.085,13.432c12.107,14.102,24.865,27.501,41.089,37.067
			c5.006,2.952,9.958,6.012,14.782,9.251c13.305,8.935,27.416,16.432,41.686,23.653c1.942,0.983,3.927,1.912,5.969,2.656
			c1.858,0.677,3.544,0.315,4.625-1.591c0.893-1.576,1.826-3.13,2.741-4.693c3.044-1.841,3.828-5.186,5.284-8.056
			c7.865-15.494,14.298-31.641,21.462-47.455c16.145-35.641,31.587-71.6,47.923-107.153
			C1693.054,910.583,1690.973,905.928,1682.571,901.391z M1665.808,912.414c-44.097-24.52-88.109-49.194-132.146-73.821
			c-2.526-1.413-5.101-2.739-8.598-4.611c-2.262,4.156-4.023,7.291-5.693,10.473c-15.525,29.577-31.035,59.161-46.547,88.745
			c-0.843,1.608-1.63,3.246-2.501,4.838c-1.791,3.271-4.437,5.27-5.184,3.943c-1.343-2.387,0.454-4.103,1.364-5.851
			c17.278-33.167,34.631-66.295,51.974-99.428c0.673-1.287,1.288-2.623,2.115-3.807c1.756-2.513,4.753-3.382,7.623-2.109
			c2.314,1.027,4.532,2.285,6.746,3.523c44.354,24.807,88.716,49.599,133.016,74.5c3.025,1.7,7.029,2.386,8.317,6.429
			C1671.794,918.119,1668.927,914.149,1665.808,912.414z"/><path fill="#161111" d="M1380.513,499.42c0.652-4.212,3.367-6.208,7.369-6.56c4.104-0.362,6.83,1.888,8.713,5.253
			c2.616,4.676,2.99,9.631,1.015,14.584c-1.256,3.149-3.706,5.503-7.045,6.206c-3.547,0.747-6.272-0.837-7.779-4.247
			c-1.163-1.109-1.05-2.475-0.775-3.883c1.785-1.994,4.445-1.155,6.499-2.072c2.753-1.004,0.626-1.691-0.245-2.459
			c-1.788-1.92-3.867-3.267-6.504-3.651C1380.426,501.89,1379.419,501.062,1380.513,499.42z"/><path fill="#2f3232" d="M1383.067,509.626c-0.094,1.677-0.187,3.354-0.281,5.03c-3.407-4.684-5.55-9.557-2.273-15.237
			c0.734,0.751,1.467,1.502,2.201,2.252C1385.169,504.219,1385.158,506.877,1383.067,509.626z"/><path fill="#d42488" d="M1384.77,2613.178c-0.046-1.082-0.24-2.12-1.369-2.673c-1.123-0.55-2.19-0.231-2.986,0.505
			c-2.657,2.458-5.282,4.959-7.815,7.545c-8.716,8.901-18.323,16.719-30.063,21.083c-24.525,9.118-49.607,16.103-75.89,18.003
			c-6.861,0.496-13.734,1.295-20.499,2.522c-8.211,1.49-16.301,3.67-23.544,8.051c-2.453,1.484-4.922,3.164-6.847,5.25
			c-3.195,3.461-2.162,9.061,2.028,11.072c2.907,1.396,6.12,2.225,9.264,3.046c10.299,2.689,20.83,2.462,31.356,2.38
			c10.88-0.085,21.791-0.512,32.637,0.106c24.247,1.383,48.574,1.226,72.757,3.819c5.139,0.551,7.062-0.339,8.515-5.76
			c6.309-23.536,9.92-47.509,12.467-72.289C1384.781,2615.352,1384.817,2614.263,1384.77,2613.178z M1365.365,2642.091
			c-10.515,11.715-24.591,16.374-39.333,19.275c-19.208,3.781-38.505,7.102-58.008,9.12c-6.112,0.632-12.138,2.072-18.217,3.058
			c-0.978,0.158-2.091,0.048-3.014-0.287c-0.388-0.141-0.822-1.502-0.594-1.776c1.704-2.045,4.13-2.793,6.658-3.153
			c10.053-1.429,20.089-3.023,30.176-4.164c15.52-1.756,30.733-5.158,46.051-8.017c12.802-2.39,24.022-7.915,33.767-16.508
			C1365.098,2639.012,1365.775,2639.995,1365.365,2642.091z"/></svg>